# xmcd CD database file
#
# Track frame offsets:
#	150
#	14973
#	34873
#	47079
#	65541
#	85223
#	102514
#	118592
#	140511
#	159287
#
# Disc length: 2456 seconds
#
# Revision: 2
# Processed by: cddbd v1.5.2PL0 Copyright (c) Steve Scherf et al.
# Submitted via: CDex 1.70beta3
#
DISCID=8909960a
DTITLE=すこっぷ - Light and Shadow
DYEAR=2010
DGENRE=Vocaloid
TTITLE0=すこっぷ feat.初音ミク - Light and Shadow
TTITLE1=すこっぷ feat.初音ミク - 朝焼けの散歩道
TTITLE2=すこっぷ feat.初音ミク - 指切り
TTITLE3=すこっぷ feat.初音ミク - スノートリック
TTITLE4=すこっぷ feat.初音ミク - 惰性モラトリアム
TTITLE5=すこっぷ feat.初音ミク - seventeen
TTITLE6=すこっぷ feat.初音ミク - Marionette Syndrome - Strings Remix
TTITLE7=すこっぷ feat.初音ミク - インターネットシティ
TTITLE8=すこっぷ feat.初音ミク - 泡沫のダンス
TTITLE9=すこっぷ feat.初音ミク - ドーシレ
EXTD=YEAR: 2010
EXTT0=
EXTT1=
EXTT2=
EXTT3=
EXTT4=
EXTT5=
EXTT6=
EXTT7=
EXTT8=
EXTT9=
PLAYORDER=
